<?xml version="1.0" encoding="UTF-8"?><svg id="Layer_2" xmlns="http://www.w3.org/2000/svg" viewBox="0 0 241.94 240.74"><defs><style>.cls-1{font-family:Montserrat-Medium, Montserrat;font-size:18px;font-weight:500;}.cls-1,.cls-2,.cls-3{fill:#0242ba;}.cls-4{fill:#fff;}.cls-2{font-family:Montserrat-Bold, Montserrat;font-size:25px;font-weight:700;}</style></defs><g id="Layer_1-2"><path class="cls-3" d="M129.01,3.3l8.7,8.58c3.31,3.27,8.23,4.31,12.58,2.67l11.44-4.3c5.86-2.2,12.41.71,14.69,6.54l4.46,11.37c1.7,4.33,5.76,7.28,10.41,7.56l12.2.73c6.25.37,11.04,5.7,10.76,11.95l-.55,12.21c-.21,4.65,2.3,9,6.43,11.14l10.85,5.62c5.56,2.88,7.77,9.7,4.97,15.29l-5.47,10.92c-2.08,4.16-1.56,9.16,1.34,12.79l7.62,9.55c3.91,4.89,3.16,12.02-1.68,15.99l-9.44,7.76c-3.6,2.95-5.15,7.73-3.98,12.23l3.08,11.82c1.58,6.06-2,12.26-8.04,13.93l-11.78,3.25c-4.49,1.24-7.85,4.97-8.61,9.56l-2,12.05c-1.02,6.18-6.82,10.39-13.01,9.45l-12.08-1.83c-4.6-.7-9.19,1.35-11.75,5.23l-6.73,10.2c-3.45,5.23-10.45,6.72-15.73,3.34l-10.29-6.58c-3.92-2.51-8.94-2.51-12.86,0l-10.29,6.58c-5.28,3.37-12.28,1.88-15.73-3.34l-6.73-10.2c-2.56-3.89-7.15-5.93-11.75-5.23l-12.08,1.83c-6.19.94-11.99-3.27-13.01-9.45l-2-12.05c-.76-4.59-4.12-8.32-8.61-9.56l-11.78-3.25c-6.04-1.66-9.62-7.87-8.04-13.93l3.08-11.82c1.17-4.5-.38-9.28-3.98-12.23l-9.44-7.76c-4.84-3.98-5.59-11.1-1.68-15.99l7.62-9.55c2.9-3.64,3.43-8.63,1.34-12.79l-5.47-10.92c-2.8-5.6-.59-12.41,4.97-15.29l10.85-5.62c4.13-2.14,6.64-6.49,6.43-11.14l-.55-12.21c-.28-6.26,4.51-11.58,10.76-11.95l12.2-.73c4.65-.28,8.71-3.23,10.41-7.56l4.46-11.37c2.29-5.83,8.83-8.74,14.69-6.54l11.44,4.3c4.36,1.64,9.27.59,12.58-2.67l8.7-8.58c4.46-4.4,11.62-4.4,16.08,0Z"/><circle class="cls-4" cx="120.97" cy="120.37" r="99.02"/><circle class="cls-3" cx="120.97" cy="120.37" r="96.49"/><circle class="cls-4" cx="120.97" cy="120.37" r="90.9"/><text class="cls-2" transform="translate(56.84 126.17) rotate(-88.1)"><tspan x="0" y="0">F</tspan></text><text class="cls-2" transform="translate(57.11 110.43) rotate(-72.66)"><tspan x="0" y="0">A</tspan></text><text class="cls-2" transform="translate(62.03 92.91) rotate(-54.37)"><tspan x="0" y="0">M</tspan></text><text class="cls-2" transform="translate(77.19 73.65) rotate(-39.51)"><tspan x="0" y="0">I</tspan></text><text class="cls-2" transform="translate(85.08 66.96) rotate(-27.23)"><tspan x="0" y="0">L</tspan></text><text class="cls-2" transform="translate(97.94 60.14) rotate(-13.32)"><tspan x="0" y="0">Y</tspan></text><text class="cls-2" transform="translate(116.46 56.54) rotate(-.93)"><tspan x="0" y="0"> </tspan></text><text class="cls-2" transform="translate(124.96 55.72) rotate(12.83)"><tspan x="0" y="0">O</tspan></text><text class="cls-2" transform="translate(143.48 58.8) rotate(32.97)"><tspan x="0" y="0">W</tspan></text><text class="cls-2" transform="translate(165.77 73.71) rotate(52.76)"><tspan x="0" y="0">N</tspan></text><text class="cls-2" transform="translate(177.76 89.85) rotate(69.21)"><tspan x="0" y="0">E</tspan></text><text class="cls-2" transform="translate(183.94 105.31) rotate(85.81)"><tspan x="0" y="0">D</tspan></text><text class="cls-1" transform="translate(66.47 180.45) rotate(37.99)"><tspan x="0" y="0">E</tspan></text><text class="cls-1" transform="translate(79.88 190.3) rotate(26.53)"><tspan x="0" y="0">S</tspan></text><text class="cls-1" transform="translate(94.03 196.86) rotate(15.63)"><tspan x="0" y="0">T</tspan></text><text class="cls-1" transform="translate(108.31 200.31) rotate(7.47)"><tspan x="0" y="0">.</tspan></text><text class="cls-1" transform="translate(117.11 201.21) rotate(1)"><tspan x="0" y="0"> </tspan></text><text class="cls-1" transform="translate(126.67 201.14) rotate(-6.32)"><tspan x="0" y="0">1</tspan></text><text class="cls-1" transform="translate(137.9 199.69) rotate(-15.94)"><tspan x="0" y="0">9</tspan></text><text class="cls-1" transform="translate(152.88 194.94) rotate(-27.14)"><tspan x="0" y="0">9</tspan></text><text class="cls-1" transform="translate(166.62 187.39) rotate(-38.23)"><tspan x="0" y="0">6</tspan></text><path id="family_star_24dp_E8EAED_FILL1_wght400_GRAD0_opsz24" class="cls-3" d="M120.92,137.81c2.99.04,5.91-.94,8.29-2.76,2.41-1.82,4.24-4.29,5.28-7.12h-27.14c1.04,2.83,2.88,5.3,5.28,7.12,2.37,1.83,5.29,2.8,8.29,2.76ZM111.23,122.31c1.55.03,3.04-.59,4.12-1.7,1.11-1.08,1.72-2.57,1.7-4.12.03-1.55-.59-3.04-1.7-4.12-1.08-1.11-2.57-1.72-4.12-1.7-1.55-.03-3.04.59-4.12,1.7-1.11,1.08-1.72,2.57-1.7,4.12-.03,1.55.59,3.04,1.7,4.12,1.08,1.11,2.57,1.73,4.12,1.7h0ZM130.61,122.31c1.55.03,3.04-.59,4.12-1.7,1.11-1.08,1.72-2.57,1.7-4.12.03-1.55-.59-3.04-1.7-4.12-1.08-1.11-2.57-1.72-4.12-1.7-1.55-.03-3.04.59-4.12,1.7-1.11,1.08-1.72,2.57-1.7,4.12-.03,1.55.59,3.04,1.7,4.12,1.08,1.11,2.57,1.73,4.12,1.7h0ZM103.96,100.59l10.86-14.06c.71-.98,1.66-1.77,2.76-2.28,1.05-.48,2.19-.73,3.34-.73,1.15,0,2.3.25,3.34.73,1.1.51,2.05,1.3,2.76,2.28l10.86,14.06,16.48,5.52c1.61.47,3.02,1.48,3.97,2.86.96,1.34,1.46,2.96,1.45,4.6,0,.79-.12,1.57-.34,2.33-.24.8-.62,1.56-1.11,2.23l-10.66,15.12.39,15.9c.11,2.14-.7,4.23-2.23,5.73-1.41,1.49-3.38,2.33-5.43,2.33-.13,0-.84-.1-2.13-.29l-17.35-4.85-17.35,4.85c-.34.13-.7.22-1.07.24-.39.03-.74.05-1.07.05-2.05,0-4.02-.83-5.43-2.33-1.53-1.5-2.34-3.59-2.23-5.73l.39-15.99-10.57-15.02c-.5-.67-.88-1.43-1.11-2.23-.22-.75-.34-1.54-.34-2.32,0-1.61.49-3.18,1.41-4.51.94-1.39,2.32-2.43,3.92-2.96l16.48-5.53Z"/><path id="_8542527_tools_settings_icon" class="cls-3" d="M194.62,156.22l-4.41-4.41c-.85-.85-2.14-1.06-3.22-.52l-4.01-4.01v-2.34l-4.82-3.61-2.41,2.41,3.62,4.82h2.34l4.01,4.01c-.53,1.07-.32,2.37.52,3.22l4.41,4.41c.55.55,1.43.55,1.98,0,0,0,0,0,0,0l1.99-1.98c.55-.55.55-1.44,0-1.98ZM188.25,149.8c1.06,0,2.07.42,2.82,1.17l.73.73c.61-.26,1.17-.64,1.65-1.11,1.35-1.35,1.89-3.3,1.42-5.15-.06-.24-.31-.39-.55-.33-.08.02-.15.06-.21.12l-2.8,2.8-2.56-.43-.43-2.56,2.8-2.8c.18-.18.18-.46,0-.64-.06-.06-.13-.1-.21-.12-1.85-.46-3.8.08-5.14,1.43-1.03,1.03-1.59,2.44-1.55,3.9l3.09,3.09c.3-.07.62-.11.93-.11h0ZM184.33,152.88l-2.14-2.14-5.74,5.74c-.94.94-.94,2.47,0,3.41.94.94,2.47.94,3.41,0l4.65-4.65c-.3-.75-.36-1.57-.19-2.36h0ZM178.16,159.1c-.5,0-.9-.4-.9-.9,0-.5.4-.9.9-.9s.9.4.9.9h0c0,.5-.41.9-.9.9Z"/><path id="_8542527_tools_settings_icon-2" class="cls-3" d="M65.77,156.22l-4.41-4.41c-.85-.85-2.14-1.06-3.22-.52l-4.01-4.01v-2.34l-4.82-3.61-2.41,2.41,3.62,4.82h2.34l4.01,4.01c-.53,1.07-.32,2.37.52,3.22l4.41,4.41c.55.55,1.43.55,1.98,0,0,0,0,0,0,0l1.99-1.98c.55-.55.55-1.44,0-1.98ZM59.39,149.8c1.06,0,2.07.42,2.82,1.17l.73.73c.61-.26,1.17-.64,1.65-1.11,1.35-1.35,1.89-3.3,1.42-5.15-.06-.24-.31-.39-.55-.33-.08.02-.15.06-.21.12l-2.8,2.8-2.56-.43-.43-2.56,2.8-2.8c.18-.18.18-.46,0-.64-.06-.06-.13-.1-.21-.12-1.85-.46-3.8.08-5.14,1.43-1.03,1.03-1.59,2.44-1.55,3.9l3.09,3.09c.3-.07.62-.11.93-.11h0ZM55.48,152.88l-2.14-2.14-5.74,5.74c-.94.94-.94,2.47,0,3.41.94.94,2.47.94,3.41,0l4.65-4.65c-.3-.75-.36-1.57-.19-2.36h0ZM49.31,159.1c-.5,0-.9-.4-.9-.9,0-.5.4-.9.9-.9s.9.4.9.9h0c0,.5-.41.9-.9.9Z"/></g></svg>